<?xml version="1.0" encoding="UTF-8"?>
<svg width="454px" height="47px" viewBox="0 0 454 47" version="1.1" xmlns="http://www.w3.org/2000/svg" xmlns:xlink="http://www.w3.org/1999/xlink">
    <!-- Generator: Sketch 59.1 (86144) - https://sketch.com -->
    <title>Group 5 Copy 13</title>
    <desc>Created with Sketch.</desc>
    <defs>
        <polygon id="path-1" points="0 0.72 47.2628571 0.72 47.2628571 31.7316837 0 31.7316837"></polygon>
        <polygon id="path-3" points="1.05234286 0.884651163 40.0134857 0.884651163 40.0134857 26.7906977 1.05234286 26.7906977"></polygon>
    </defs>
    <g id="Design" stroke="none" stroke-width="1" fill="none" fill-rule="evenodd">
        <g id="PrefectCloud-HD-v6" transform="translate(-201.000000, -320.000000)">
            <g id="Group-5-Copy-13" transform="translate(201.000000, 319.000000)">
                <g id="Group-10-Copy-6" transform="translate(70.000000, 8.000000)" fill="#FFFFFF">
                    <g id="Group-10-Copy-4">
                        <path d="M186.204671,0 L213,0 L213,5.59706167 L201.858285,5.59706167 L201.858285,32 L195.928365,32 L195.928365,5.57759301 L184.78665,5.57759301 L173.865963,5.57759301 C163.221519,5.57759301 163.202943,5.48115099 163.202943,16 C163.202943,26.5184885 163.202943,26.5184885 173.865963,26.5184885 L183.479057,26.5184885 L183.479057,32 L173.865963,32 C157.272839,32 157.272839,30.957525 157.272839,16 C157.272839,1.04211451 157.033589,0 173.865963,0 L186.204671,0 Z M127.660056,32 L127.660056,0 L154.105524,0 L154.105524,5.50061966 L133.516358,5.50061966 L133.516358,13.0468915 L151.030049,13.0468915 L151.030049,18.489646 L133.516358,18.489646 L133.516358,26.5184885 L154.47379,26.5184885 L154.47379,32 L127.660056,32 Z M97.3287906,32 L97.3287906,0 L124.12412,0 L124.12412,5.50061966 L103.314097,5.50061966 L103.314097,13.0468915 L120.974855,13.0468915 L120.974855,18.489646 L103.314097,18.489646 L103.314097,32 L97.3287906,32 Z M65.5979096,32 L65.5979096,0 L92.0433779,0 L92.0433779,5.50061966 L71.4542116,5.50061966 L71.4542116,13.0468915 L88.9494988,13.0468915 L88.9494988,18.489646 L71.4542116,18.489646 L71.4542116,26.5184885 L92.4116436,26.5184885 L92.4116436,32 L65.5979096,32 Z M38.9682224,14.8032177 L50.0915324,14.8032177 C54.0879292,14.8032177 55.4507359,13.6066157 55.4507359,10.209874 C55.4507359,6.71651006 54.0325431,5.48115099 50.0915324,5.48115099 L38.9682224,5.48115099 L38.9682224,14.8032177 Z M33.1489018,32 L33.1489018,0 L50.5703983,0 C58.3788009,0 61.2518238,2.81790937 61.2518238,10.1712972 C61.2518238,16.385768 59.2075277,19.3001194 53.8853056,20.0529079 L62.761868,32 L55.4875453,32 L46.8872252,20.2461525 L38.9498177,20.2461525 L38.9498177,32 L33.1489018,32 Z M5.9483254,15.2857883 L17.2190449,15.2857883 C21.4915119,15.2857883 22.9463421,14.0891863 22.9463421,10.4220465 C22.9463421,6.75508687 21.4915119,5.50061966 17.2190449,5.50061966 L5.9483254,5.50061966 L5.9483254,15.2857883 Z M0,32 L0,0 L17.7713575,0 C25.9113884,0 28.9130722,2.85648618 28.9130722,10.4220465 C28.9130722,17.987787 25.9113884,20.786408 17.7713575,20.786408 L5.9483254,20.786408 L5.9483254,32 L0,32 Z" id="Fill-1"></path>
                    </g>
                </g>
                <g id="Group-7">
                    <g id="Group-3" transform="translate(0.000000, 0.396837)">
                        <mask id="mask-2" fill="white">
                            <use xlink:href="#path-1"></use>
                        </mask>
                        <g id="Clip-2"></g>
                        <path d="M6.40445714,27.1962419 C6.9416,21.3915907 11.3084571,15.8883349 17.9793143,15.1962419 C24.8398857,14.4829395 27.9827429,17.5951256 30.0284571,20.6202419 C32.3141714,19.9393116 35.0604571,20.4996837 37.1073143,21.6907535 C39.7404571,23.2222884 41.6627429,26.1011721 42.0284571,29.0704744 C44.0033143,29.6118698 44.9450286,30.3262884 45.8010286,31.7316837 C46.7301714,29.2557767 47.2638857,26.5923349 47.2638857,23.8016372 C47.2638857,11.0537302 36.6833143,0.719218605 23.6318857,0.719218605 C10.5804571,0.719218605 -0.000114285714,11.0537302 -0.000114285714,23.8016372 C-0.000114285714,26.3813581 0.451314286,28.8528 1.25131429,31.1690791 C2.3656,29.0336372 3.91417143,28.1093581 6.40445714,27.1962419" id="Fill-1" fill="#FFFFFF" mask="url(#mask-2)"></path>
                    </g>
                    <g id="Group-6" transform="translate(3.428571, 20.489860)">
                        <mask id="mask-4" fill="white">
                            <use xlink:href="#path-3"></use>
                        </mask>
                        <g id="Clip-5"></g>
                        <path d="M35.4112,13.2373953 C34.6454857,13.1146047 34.0969143,12.4783256 34.0854857,11.7192558 C34.0854857,9.096 32.7220571,7.20837209 31.2020571,6.32651163 C29.6820571,5.43348837 27.8032,5.51497674 26.1917714,6.30753488 C25.4020571,6.68818605 24.4534857,6.38567442 24.0534857,5.62772093 C22.7174857,3.01562791 20.3483429,0.884651163 16.4397714,0.884651163 C11.0912,0.884651163 7.7552,5.08967442 7.80091429,9.65525581 C7.81234286,10.3707907 7.32091429,10.9947907 6.61234286,11.1733953 C3.5072,11.9402791 1.20205714,13.9931163 1.05234286,17.1946047 C5.34262857,22.9981395 12.3117714,26.7912558 20.2032,26.7912558 C28.5083429,26.7912558 35.7997714,22.5973953 40.0134857,16.268093 C39.0763429,14.6662326 37.3152,13.5566512 35.4112,13.2373953" id="Fill-4" fill="#FFFFFF" mask="url(#mask-4)"></path>
                    </g>
                </g>
                <path d="M301.44,40.576 C305.52,40.576 308.832,40.048 312.432,38.752 L312.096,36.016 C308.496,37.36 305.472,37.888 301.488,37.888 L300.783732,37.882254 C291.074157,37.7208278 287.648669,34.1355052 287.569413,24.2748395 L287.568,23.92 C287.568,13.552 291.12,9.952 301.488,9.952 C305.472,9.952 308.496,10.48 312.096,11.824 L312.432,9.088 C308.88,7.792 305.52,7.264 301.44,7.264 C289.425191,7.264 284.739911,11.7744789 284.641584,23.538012 L284.64,23.92 C284.64,35.968 289.296,40.576 301.44,40.576 Z M318.144,40 L343.968,40 L343.968,37.312 L321.024,37.312 L321.024,7.84 L318.144,7.84 L318.144,40 Z M362.448,40.576 L363.206858,40.570398 C375.062185,40.3925093 379.344,35.9546392 379.344,23.92 L379.338276,23.1699874 C379.15653,11.4537332 374.62367,7.264 362.448,7.264 L361.686294,7.26960197 C349.913022,7.44561819 345.642023,11.792404 345.553412,23.5424801 L345.552,23.92 C345.552,36.208 349.968,40.576 362.448,40.576 Z M362.448,37.936 L361.746882,37.930794 C351.851614,37.7809381 348.555756,34.3693971 348.481296,24.2748515 L348.48,23.92 C348.48,13.312 351.888,9.904 362.448,9.904 L363.149118,9.90920602 C373.159448,10.0608044 376.416,13.550382 376.416,23.92 L376.410795,24.6242814 C376.25922,34.6794475 372.770697,37.936 362.448,37.936 Z M400.224,40.576 L400.948026,40.5719759 C411.877374,40.4478407 414.912,37.4182128 414.912,26.848 L414.912,7.84 L412.08,7.84 L412.08,26.944 L412.075837,27.567512 C411.963952,35.7288258 409.561715,37.8362601 400.656984,37.8870516 L400.32,37.888 C390.864,37.888 388.512,35.728 388.512,26.944 L388.512,7.84 L385.632,7.84 L385.632,26.848 C385.632,37.648 388.752,40.576 400.224,40.576 Z M423.024,40 L436.944,40 L437.703499,39.9949282 C449.68871,39.83209 453.696,35.7221224 453.696,23.92 L453.690746,23.1923493 C453.522052,11.7091079 449.263347,7.84 436.944,7.84 L423.024,7.84 L423.024,40 Z M425.904,37.36 L425.904,10.48 L436.8,10.48 C447.552,10.48 450.768,13.6 450.768,23.92 L450.763079,24.6048689 C450.619655,34.3786492 447.310382,37.36 436.8,37.36 L425.904,37.36 Z" id="CLOUD" fill="#FFFFFF" fill-rule="nonzero"></path>
            </g>
        </g>
    </g>
</svg>